# xmcd
# 
# Track frame offsets:
#     150
#     11395
#     23235
#     37433
#     49360
#     63083
#     76655
#     93530
#     106808
#     116553
# 
# Disc length: 1737
# 
# Revision: 6
# Processed by: cddbd v1.5.2PL0 Copyright (c) Steve Scherf et al.
# Submitted via: fre:ac v1.1beta1pre3
# 
DISCID=7806c70a
DTITLE=Conway Twitty - Super Hits
DYEAR=1994
DGENRE=Classic Country
TTITLE0=Hello Darlin'
TTITLE1=Linda On My Mind
TTITLE2=You've Never Been This Far Before
TTITLE3=She Needs Someone to Hold Her ( When She Cries )
TTITLE4=Baby's Gone
TTITLE5=The Games that Daddies Play
TTITLE6=Don't Cry Joni
TTITLE7=After All the Good is Gone
TTITLE8=I'll Try
TTITLE9=Fifteen Years Ago
EXTD=
EXTT0=
EXTT1=
EXTT2=
EXTT3=
EXTT4=
EXTT5=
EXTT6=
EXTT7=
EXTT8=
EXTT9=
PLAYORDER=
